# xmcd CD database file
#
# Track frame offsets:
#	150
#	21444
#	41470
#	61812
#	94217
#	121537
#	137902
#	156650
#	186505
#
# Disc length: 2790 seconds
#
# Revision: 0
# Processed by: cddbd v1.5.1PL0 Copyright (c) Steve Scherf et al.
# Submitted via: CDex 1.51
#
DISCID=7c0ae409
DTITLE=Love parade - Love tambourines
DYEAR=2004
DGENRE=Soul
TTITLE0=Baby Why
TTITLE1=Cherish Our Love
TTITLE2=Spend The Day Without You
TTITLE3=Midnight Parade
TTITLE4=Never Can Say Goodbye
TTITLE5=Love Is Here
TTITLE6=Love Space
TTITLE7=Secret Summer
TTITLE8=Love Is Life To Women
EXTD=YEAR: 2004
EXTT0=
EXTT1=
EXTT2=
EXTT3=
EXTT4=
EXTT5=
EXTT6=
EXTT7=
EXTT8=
PLAYORDER=
